:SAMPLES-PER-SECOND 30
:FULLY-SPECIFIED
:DEGREES
482
root  1.07588 40.7467 -9.19364 -117.617 -88.7701 111.398
RightUpLeg  -1.01201 -8.95764 -4.97747
RightLeg  9.75663 0.102576 3.62555
RightFoot  -0.135654 0.407064 -4.15418
RightToes  0.000482159 0.542163 -0.142577
Spine  10.616 0.806233 0.322426
Spine1  -0.597551 0.265585 3.92971
HEad  -28.1553 5.59106 -1.86151
LeftShoulder1  3.52591 -7.49117 -25.8888
LeftArm  -16.8116 18.9267 -8.77561
LeftForeArm  25.2863 -9.65992 -1.70111
LeftHand  -0.25398 0.0180481 5.50724
RightShoulder  2.34026 4.90799 21.508
RightArm  -26.2586 -11.9946 14.286
RightForeArm  -13.5492 12.1405 3.75124
RightHand  -4.74924 13.6543 -28.815
LeftUpLeg  -0.140454 5.64857 -0.592937
LeftLeg  8.16887 9.0871 -1.3093
LeftFoot  -2.03638 -0.271608 3.49221
LeftToes  1.06246e-005 4.65855e-005 -8.18502e-006
483
root  0.761003 40.8105 -9.29709 -110.409 -88.8176 104.585
RightUpLeg  -0.477872 -8.65618 -4.83993
RightLeg  8.93043 -0.34496 3.64618
RightFoot  -0.363979 0.404943 -4.23489
RightToes  0.000482159 0.542163 -0.142577
Spine  9.90622 1.2848 0.00281394
Spine1  -1.04123 0.771796 3.79847
HEad  -25.7234 4.13652 -1.95632
LeftShoulder1  2.95174 -6.76152 -22.4015
LeftArm  -17.645 18.514 -5.28873
LeftForeArm  23.3157 -10.8022 -1.47282
LeftHand  -0.25398 0.0180481 5.50724
RightShoulder  1.81831 3.85088 18.1853
RightArm  -27.0203 -11.9892 10.7668
RightForeArm  -17.3081 9.33454 3.03386
RightHand  -4.66789 13.309 -28.8405
LeftUpLeg  0.381796 4.76081 -0.429921
LeftLeg  7.20118 9.59908 -1.59769
LeftFoot  -1.88518 -0.278708 3.50646
LeftToes  1.06246e-005 4.65855e-005 -8.18502e-006
484
root  0.484504 40.8608 -9.38768 -97.4149 -88.8495 92.0648
RightUpLeg  -0.142871 -8.45658 -4.70617
RightLeg  8.23838 -0.77625 3.63574
RightFoot  -0.588513 0.395228 -4.23688
RightToes  0.000482159 0.542163 -0.142577
Spine  9.29668 1.4908 -0.371066
Spine1  -1.6185 1.00891 3.59781
HEad  -23.3595 3.08758 -2.00594
LeftShoulder1  2.36275 -5.81718 -18.7494
LeftArm  -18.9149 18.2264 -2.45848
LeftForeArm  22.4281 -12.5066 -1.29897
LeftHand  -0.25398 0.0180481 5.50724
RightShoulder  1.37488 2.73882 15.2457
RightArm  -27.6572 -11.8827 7.77618
RightForeArm  -20.4985 8.30053 2.68099
RightHand  -4.67313 13.2662 -28.9334
LeftUpLeg  0.707461 4.16543 -0.322964
LeftLeg  6.4658 10.0683 -1.75499
LeftFoot  -1.89157 -0.281935 3.54767
LeftToes  1.06246e-005 4.65855e-005 -8.18502e-006
485
root  0.249311 40.8931 -9.46766 -75.7232 -88.7372 70.8046
RightUpLeg  0.0840776 -8.41698 -4.69498
RightLeg  7.77099 -1.1867 3.66441
RightFoot  -0.765092 0.381465 -4.17262
RightToes  0.000482159 0.542163 -0.142577
Spine  9.03521 1.41309 -0.932068
Spine1  -2.47228 0.9394 3.45709
HEad  -21.2063 2.42996 -1.952
LeftShoulder1  1.78467 -4.63696 -15.0303
LeftArm  -21.3271 18.107 -0.448748
LeftForeArm  22.9902 -14.55 -1.13706
LeftHand  -0.25398 0.0180481 5.50724
RightShoulder  1.00965 1.62273 12.682
RightArm  -28.6785 -11.6464 5.46318
RightForeArm  -22.0954 8.97202 2.59688
RightHand  -4.56738 13.0938 -28.5625
LeftUpLeg  0.990389 3.81297 -0.179554
LeftLeg  5.68706 10.0057 -2.09919
LeftFoot  -2.0123 -0.24219 3.11692
LeftToes  1.06246e-005 4.65855e-005 -8.18502e-006
486
root  0.0511755 40.9125 -9.52781 -61.5036 -88.5167 56.8332
RightUpLeg  0.310378 -8.41641 -4.71786
RightLeg  7.56407 -1.51932 3.66812
RightFoot  -1.03871 0.364464 -4.11633
RightToes  0.000482159 0.542163 -0.142577
Spine  9.09686 1.30198 -1.42799
Spine1  -3.30782 0.83545 3.32297
HEad  -19.4299 1.94817 -1.84352
LeftShoulder1  1.3232 -3.49766 -11.7129
LeftArm  -25.1603 17.9902 0.908776
LeftForeArm  24.861 -16.7967 -1.20933
LeftHand  -0.25398 0.0180481 5.50724
RightShoulder  0.729648 0.633564 10.4005
RightArm  -30.0145 -11.5289 3.65701
RightForeArm  -22.0203 10.8402 2.70872
RightHand  -4.37491 12.7211 -27.9594
LeftUpLeg  1.27738 3.6716 -0.0401258
LeftLeg  5.10159 9.58645 -2.44844
LeftFoot  -2.06806 -0.211678 2.76404
LeftToes  1.06246e-005 4.65855e-005 -8.18502e-006
487
root  -0.114496 40.9219 -9.56409 -54.542 -88.3733 50.0074
RightUpLeg  0.511528 -8.33033 -4.64578
RightLeg  7.49232 -1.84705 3.56599
RightFoot  -1.4113 0.344082 -4.06635
RightToes  0.000482159 0.542163 -0.142577
Spine  9.18983 1.26462 -1.69053
Spine1  -3.77157 0.813202 3.18393
HEad  -18.0783 1.45818 -1.71918
LeftShoulder1  1.01378 -2.62731 -9.08056
LeftArm  -29.4831 17.821 1.79557
LeftForeArm  26.7705 -18.9875 -1.7292
LeftHand  -0.25398 0.0180481 5.50724
RightShoulder  0.530309 -0.163934 8.43619
RightArm  -31.4829 -11.5658 2.11947
RightForeArm  -20.7264 13.2284 3.03759
RightHand  -4.33721 12.6269 -27.8678
LeftUpLeg  1.42797 3.59958 -0.010158
LeftLeg  5.01068 9.38545 -2.45463
LeftFoot  -2.16315 -0.214621 2.83686
LeftToes  1.06246e-005 4.65855e-005 -8.18502e-006
488
root  -0.254862 40.9234 -9.58371 -48.7154 -88.2709 44.368
RightUpLeg  0.598294 -8.20949 -4.51494
RightLeg  7.4222 -2.17852 3.43897
RightFoot  -1.69552 0.327673 -4.01554
RightToes  0.000482159 0.542163 -0.142577
Spine  9.07234 1.23022 -1.86196
Spine1  -3.80679 0.777678 3.15655
HEad  -17.0863 0.962331 -1.57103
LeftShoulder1  0.803743 -1.94956 -7.05859
LeftArm  -32.7097 17.4785 2.18274
LeftForeArm  27.1132 -20.556 -2.38473
LeftHand  -0.25398 0.0180481 5.50724
RightShoulder  0.386699 -0.833035 6.862
RightArm  -32.9257 -11.4919 0.855446
RightForeArm  -19.0687 15.6401 3.57926
RightHand  -4.60307 13.1847 -28.637
LeftUpLeg  1.3867 3.50496 -0.0434826
LeftLeg  5.15635 9.39644 -2.26078
LeftFoot  -2.39023 -0.213996 2.91753
LeftToes  1.06246e-005 4.65855e-005 -8.18502e-006
489
root  -0.376928 40.9261 -9.5946 -44.4268 -88.1827 40.3284
RightUpLeg  0.598257 -8.15634 -4.43928
RightLeg  7.31341 -2.38251 3.4092
RightFoot  -1.82201 0.3213 -4.00291
RightToes  0.000482159 0.542163 -0.142577
Spine  8.81161 1.17457 -2.10044
Spine1  -3.6583 0.692111 3.27141
HEad  -16.2675 0.548369 -1.35746
LeftShoulder1  0.64927 -1.35582 -5.50484
LeftArm  -34.1338 16.8152 2.08183
LeftForeArm  25.8574 -21.0229 -2.66796
LeftHand  -0.25398 0.0180481 5.50724
RightShoulder  0.285492 -1.37753 5.67928
RightArm  -33.9723 -11.0948 -0.0464006
RightForeArm  -17.8081 17.71 4.18559
RightHand  -5.03717 14.1066 -29.7893
LeftUpLeg  1.30323 3.44537 -0.0208192
LeftLeg  5.13482 9.28846 -2.22984
LeftFoot  -2.56376 -0.199563 2.80036
LeftToes  1.06246e-005 4.65855e-005 -8.18502e-006
490
root  -0.483098 40.9364 -9.59903 -43.7771 -88.184 39.8878
RightUpLeg  0.628155 -8.14323 -4.42046
RightLeg  7.15015 -2.41302 3.44237
RightFoot  -1.8887 0.320447 -4.02667
RightToes  0.000482159 0.542163 -0.142577
Spine  8.65966 1.13821 -2.3554
Spine1  -3.65263 0.625793 3.37362
HEad  -15.3073 0.160442 -1.00358
LeftShoulder1  0.549373 -0.962052 -4.31085
LeftArm  -33.9193 15.9494 1.6676
LeftForeArm  24.394 -20.3438 -2.41377
LeftHand  -0.25398 0.0180481 5.50724
RightShoulder  0.231814 -1.67442 4.82779
RightArm  -34.2765 -10.3897 -0.606808
RightForeArm  -16.7067 18.98 4.57575
RightHand  -5.3589 14.7946 -30.5633
LeftUpLeg  1.33922 3.45324 0.062251
LeftLeg  4.9112 9.15828 -2.38893
LeftFoot  -2.55321 -0.196904 2.77021
LeftToes  1.06246e-005 4.65855e-005 -8.18502e-006
491
root  -0.575133 40.9498 -9.59716 -46.183 -88.2801 42.4414
RightUpLeg  0.714812 -8.08893 -4.38795
RightLeg  6.9284 -2.36716 3.43274
RightFoot  -1.95248 0.317516 -4.02385
RightToes  0.000482159 0.542163 -0.142577
Spine  8.71185 1.10938 -2.52971
Spine1  -3.91725 0.597243 3.31955
HEad  -14.0222 -0.333033 -0.468523
LeftShoulder1  0.501329 -0.872737 -3.35704
LeftArm  -32.3183 15.1329 1.07648
LeftForeArm  23.6756 -18.843 -1.73589
LeftHand  -0.25398 0.0180481 5.50724
RightShoulder  0.221221 -1.6856 4.25167
RightArm  -34.0032 -9.44711 -0.858937
RightForeArm  -14.9678 19.0983 4.56744
RightHand  -5.4681 15.0818 -30.7347
LeftUpLeg  1.49063 3.44765 0.12762
LeftLeg  4.62397 9.27767 -2.53995
LeftFoot  -2.49386 -0.204282 2.88502
LeftToes  1.06246e-005 4.65855e-005 -8.18502e-006
492
root  -0.65791 40.9599 -9.59027 -50.0636 -88.3989 46.4721
RightUpLeg  0.773635 -8.00463 -4.3421
RightLeg  6.71286 -2.29686 3.38657
RightFoot  -2.00028 0.310475 -3.96207
RightToes  0.000482159 0.542163 -0.142577
Spine  8.80015 1.05538 -2.67195
Spine1  -4.258 0.55874 3.17825
HEad  -12.66 -0.852843 0.156562
LeftShoulder1  0.484905 -0.963597 -2.68143
LeftArm  -29.951 14.4018 0.405604
LeftForeArm  23.6433 -16.9145 -0.939478
LeftHand  -0.25398 0.0180481 5.50724
RightShoulder  0.2314 -1.5579 3.93663
RightArm  -33.5888 -8.29187 -0.833931
RightForeArm  -12.7453 18.2392 4.23868
RightHand  -5.48919 15.2295 -30.6378
LeftUpLeg  1.64179 3.37662 0.146204
LeftLeg  4.31882 9.56024 -2.62981
LeftFoot  -2.50819 -0.205982 2.91147
LeftToes  1.06246e-005 4.65855e-005 -8.18502e-006
493
root  -0.73617 40.9666 -9.57901 -55.0285 -88.5222 51.623
RightUpLeg  0.741558 -7.94607 -4.31927
RightLeg  6.58591 -2.16707 3.37635
RightFoot  -2.05556 0.300806 -3.87035
RightToes  0.000482159 0.542163 -0.142577
Spine  8.73566 1.00807 -2.88726
Spine1  -4.38675 0.503678 3.14997
HEad  -11.6748 -1.24568 0.730178
LeftShoulder1  0.492506 -1.09322 -2.52512
LeftArm  -27.6642 13.6605 -0.155852
LeftForeArm  23.5915 -14.8299 -0.302324
LeftHand  -0.25398 0.0180481 5.50724
RightShoulder  0.243427 -1.44214 3.84244
RightArm  -33.1297 -7.02062 -0.658964
RightForeArm  -10.9934 16.9081 3.79857
RightHand  -5.46397 15.252 -30.4744
LeftUpLeg  1.70947 3.31149 0.156719
LeftLeg  4.04749 9.7729 -2.71586
LeftFoot  -2.54483 -0.202029 2.84996
LeftToes  1.06246e-005 4.65855e-005 -8.18502e-006
494
root  -0.81276 40.9721 -9.56254 -61.5975 -88.6756 58.403
RightUpLeg  0.647421 -7.90245 -4.29168
RightLeg  6.51933 -1.99379 3.40109
RightFoot  -2.1392 0.290934 -3.78612
RightToes  0.000482159 0.542163 -0.142577
Spine  8.54706 1.00613 -3.16421
Spine1  -4.27193 0.465442 3.28101
HEad  -11.1619 -1.75311 1.25762
LeftShoulder1  0.529059 -1.27502 -2.92983
LeftArm  -25.8833 12.9909 -0.51311
LeftForeArm  22.9103 -12.7288 0.0959115
LeftHand  -0.25398 0.0180481 5.50724
RightShoulder  0.254233 -1.35402 3.86476
RightArm  -32.339 -5.81075 -0.464586
RightForeArm  -9.67704 15.2627 3.33458
RightHand  -5.3152 14.9497 -30.1082
LeftUpLeg  1.6957 3.32688 0.202876
LeftLeg  3.89034 9.91465 -2.80289
LeftFoot  -2.56852 -0.203508 2.87298
LeftToes  1.06246e-005 4.65855e-005 -8.18502e-006
495
root  -0.887955 40.9768 -9.54084 -69.2446 -88.8443 66.2695
RightUpLeg  0.560038 -7.83337 -4.21697
RightLeg  6.41151 -1.85371 3.41153
RightFoot  -2.20599 0.283869 -3.72937
RightToes  0.000482159 0.542163 -0.142577
Spine  8.41865 1.01459 -3.38935
Spine1  -4.15101 0.444711 3.3798
HEad  -10.8003 -2.83396 1.86083
LeftShoulder1  0.57747 -1.49514 -3.47821
LeftArm  -24.6398 12.5745 -0.865639
LeftForeArm  21.7821 -10.7308 0.295615
LeftHand  -0.25398 0.0180481 5.50724
RightShoulder  0.267929 -1.24949 3.93208
RightArm  -31.1088 -4.79105 -0.268494
RightForeArm  -7.64074 13.1379 2.79842
RightHand  -5.11489 14.568 -29.5643
LeftUpLeg  1.65019 3.40397 0.292161
LeftLeg  3.81292 10.0548 -2.88035
LeftFoot  -2.62518 -0.208918 2.95717
LeftToes  1.06246e-005 4.65855e-005 -8.18502e-006
496
root  -0.950498 40.9803 -9.51944 -75.675 -88.9726 72.8814
RightUpLeg  0.521363 -7.75766 -4.13086
RightLeg  6.25862 -1.7768 3.40382
RightFoot  -2.22209 0.282497 -3.70796
RightToes  0.000482159 0.542163 -0.142577
Spine  8.44006 0.990257 -3.49551
Spine1  -4.18319 0.422276 3.30758
HEad  -10.4055 -4.2629 2.4734
LeftShoulder1  0.602615 -1.61737 -3.72266
LeftArm  -23.9412 12.4105 -1.35507
LeftForeArm  20.9396 -9.15936 0.37767
LeftHand  -0.25398 0.0180481 5.50724
RightShoulder  0.284173 -1.13368 4.05122
RightArm  -29.9181 -4.06907 -0.108003
RightForeArm  -4.918 10.9677 2.29159
RightHand  -5.04611 14.5674 -29.1909
LeftUpLeg  1.61718 3.48098 0.385029
LeftLeg  3.73394 10.1316 -2.9558
LeftFoot  -2.69689 -0.211428 2.99623
LeftToes  1.06246e-005 4.65855e-005 -8.18502e-006
